<?xml version="1.0" encoding="iso-8859-1"?>
<!-- Uploaded to: SVG Repo, www.svgrepo.com, Generator: SVG Repo Mixer Tools -->
<svg fill="#000000" version="1.1" id="Layer_1" xmlns="http://www.w3.org/2000/svg" xmlns:xlink="http://www.w3.org/1999/xlink" 
	 viewBox="0 0 490 490" xml:space="preserve">
<g>
	<g>
		<g>
			<rect x="215" y="237.5" width="60" height="20"/>
			<rect x="290" y="237.5" width="20" height="20"/>
			<rect x="180" y="237.5" width="20" height="20"/>
			<rect x="215" y="362.5" width="60" height="20"/>
			<rect x="290" y="362.5" width="20" height="20"/>
			<rect x="180" y="362.5" width="20" height="20"/>
			<path d="M480,132.5h-25v-25c0-5.523-4.478-10-10-10h-10v-15h20c5.522,0,10-4.477,10-10v-35c0-5.523-4.478-10-10-10H325
				c-5.522,0-10,4.477-10,10v25h-20c-5.522,0-10,4.477-10,10v35c0,5.523,4.478,10,10,10h10v15h-45v-85c0-5.523-4.478-10-10-10h-85
				v-15c0-5.523-4.478-10-10-10H55c-5.522,0-10,4.477-10,10v110H10c-5.522,0-10,4.477-10,10v325c0,5.523,4.478,10,10,10h40
				c5.522,0,10-4.477,10-10v-25h370v25c0,5.523,4.478,10,10,10h40c5.522,0,10-4.477,10-10v-325C490,136.977,485.522,132.5,480,132.5
				z M335,47.5h110v15H335V47.5z M305,82.5h110v15H305V82.5z M435,117.5v15H325v-15H435z M165,92.5h55v-20h-55v-15h75v75h-75V92.5z
				 M65,67.5h55v-20H65v-15h80v100H65V67.5z M40,457.5H20v-15h20V457.5z M470,457.5h-20v-15h20V457.5z M470,422.5H20V317.9h450
				V422.5z M470,297.9H20V192.5h450V297.9z M470,172.5H20v-20h450V172.5z"/>
		</g>
	</g>
</g>
</svg>