<?xml version="1.0" encoding="iso-8859-1"?>
<!-- Uploaded to: SVG Repo, www.svgrepo.com, Generator: SVG Repo Mixer Tools -->
<svg fill="#000000" version="1.1" id="Layer_1" xmlns="http://www.w3.org/2000/svg" xmlns:xlink="http://www.w3.org/1999/xlink" 
	 viewBox="0 0 490 490" xml:space="preserve">
<g>
	<g>
		<g>
			<path d="M480,260H290v-30h130c5.522,0,10-4.477,10-10V10c0-5.523-4.478-10-10-10H70c-5.523,0-10,4.477-10,10v210
				c0,5.523,4.477,10,10,10h130v30H10c-5.523,0-10,4.477-10,10v40c0,5.523,4.477,10,10,10h10v170h20v-80h410v80h20V320h10
				c5.522,0,10-4.477,10-10v-40C490,264.477,485.522,260,480,260z M80,210V20h330v190H80z M270,230v30h-50v-30H270z M450,390H40v-70
				h410V390z M470,300H20v-20h450V300z"/>
			<rect x="220" y="345" width="50" height="20"/>
			<rect x="220" y="445" width="50" height="20"/>
			<path d="M390,30H100c-5.523,0-10,4.477-10,10v150c0,5.523,4.477,10,10,10h290c5.522,0,10-4.477,10-10V40
				C400,34.477,395.522,30,390,30z M380,180H110V50h270V180z"/>
			
				<rect x="189.999" y="89.643" transform="matrix(0.7071 0.7071 -0.7071 0.7071 146.9663 -104.8099)" width="20.001" height="70.71"/>
			
				<rect x="232.499" y="71.891" transform="matrix(0.7071 0.7071 -0.7071 0.7071 129.3612 -147.3101)" width="20.001" height="21.213"/>
			
				<rect x="209.47" y="107.498" transform="matrix(-0.7071 0.7071 -0.7071 -0.7071 531.2035 14.9655)" width="106.065" height="20.001"/>
		</g>
	</g>
</g>
</svg>