<?xml version="1.0" encoding="iso-8859-1"?>
<!-- Uploaded to: SVG Repo, www.svgrepo.com, Generator: SVG Repo Mixer Tools -->
<svg fill="#000000" height="800px" width="800px" version="1.1" id="Layer_1" xmlns="http://www.w3.org/2000/svg" xmlns:xlink="http://www.w3.org/1999/xlink" 
	 viewBox="0 0 485 485" xml:space="preserve">
<g>
	<g>
		<path d="M400.197,147.44V33.899h-73.822v53.796L242.5,19.812L0,216.072l12.385,15.308l48.481-39.238v273.046h123.913h115.442
			h123.913V192.142l48.481,39.238L485,216.072L400.197,147.44z M346.067,53.591h34.438v77.911l-34.438-27.87V53.591z
			 M280.529,445.495h-76.058V279.332h76.058V445.495z M404.442,445.495H300.221V259.639H184.779v185.856H80.558V176.204
			L242.5,45.139l161.942,131.065V445.495z"/>
	</g>
</g>
<g>
	<g>
		<path d="M203.731,119.168v77.538h77.538v-77.538H203.731z M261.577,177.014h-38.154v-38.154h38.154V177.014z"/>
	</g>
</g>
</svg>