<?xml version="1.0" encoding="iso-8859-1"?>
<!-- Uploaded to: SVG Repo, www.svgrepo.com, Generator: SVG Repo Mixer Tools -->
<svg fill="#000000" version="1.1" id="Layer_1" xmlns="http://www.w3.org/2000/svg" xmlns:xlink="http://www.w3.org/1999/xlink" 
	 viewBox="0 0 512 512" xml:space="preserve">
<g>
	<g>
		<rect x="240.792" width="30.417" height="73.316"/>
	</g>
</g>
<g>
	<g>
		<rect x="350.299" y="75.702" transform="matrix(0.7071 -0.7071 0.7071 0.7071 49.0535 300.247)" width="73.315" height="30.417"/>
	</g>
</g>
<g>
	<g>
		<rect x="404.558" y="206.664" width="73.315" height="30.417"/>
	</g>
</g>
<g>
	<g>
		<rect x="34.126" y="206.664" width="73.315" height="30.417"/>
	</g>
</g>
<g>
	<g>
		
			<rect x="109.824" y="54.246" transform="matrix(0.7071 -0.7071 0.7071 0.7071 -27.6573 115.0359)" width="30.417" height="73.315"/>
	</g>
</g>
<g>
	<g>
		<path d="M425.221,319.753c-14.552-17.846-33.815-31.35-55.308-38.991c1.245-6.793,1.901-13.789,1.901-20.936v-37.953
			c0-63.86-51.954-115.814-115.814-115.814s-115.814,51.955-115.814,115.814v37.953c0,7.147,0.655,14.144,1.901,20.936
			c-21.493,7.641-40.757,21.145-55.31,38.991c-18.154,22.262-28.152,50.368-28.152,79.141V512h394.748V398.895
			C453.373,370.121,443.376,342.016,425.221,319.753z M256,136.476c24.107,0,45.895,10.057,61.439,26.175
			c-16.407,15.881-38.215,24.796-61.439,24.796s-45.032-8.915-61.439-24.796C210.103,146.533,231.893,136.476,256,136.476z
			 M170.603,221.874c0-11.918,2.463-23.271,6.893-33.586c21.519,18.989,49.168,29.578,78.505,29.578
			c29.335,0,56.984-10.588,78.505-29.578c4.43,10.315,6.893,21.667,6.893,33.587v37.953c0,39.712-27.248,73.179-64.029,82.689
			c-0.029,0.006-0.058,0.014-0.086,0.021c-2.662,0.685-5.375,1.242-8.129,1.67c-0.225,0.034-0.453,0.062-0.679,0.095
			c-1.061,0.156-2.127,0.291-3.2,0.408c-0.402,0.044-0.805,0.083-1.208,0.121c-0.954,0.09-1.912,0.161-2.875,0.219
			c-0.395,0.023-0.79,0.053-1.187,0.071c-1.327,0.062-2.66,0.101-4.003,0.101s-2.676-0.039-4.003-0.101
			c-0.396-0.018-0.792-0.048-1.187-0.071c-0.962-0.058-1.921-0.13-2.875-0.219c-0.404-0.037-0.806-0.077-1.208-0.121
			c-1.073-0.117-2.14-0.252-3.2-0.408c-0.226-0.033-0.453-0.06-0.679-0.095c-2.755-0.428-5.468-0.984-8.13-1.67
			c-0.028-0.007-0.057-0.015-0.086-0.022c-36.781-9.51-64.029-42.977-64.029-82.689V221.874z M422.961,481.583h-0.004h-211.16
			c-8.895,0-16.132-7.237-16.132-16.132s7.237-16.132,16.132-16.132h175.511v-59.144h-30.417v28.727H211.797h-0.001h-56.687v-28.727
			h-30.417v59.144h43.442c-1.865,5.029-2.886,10.464-2.886,16.132s1.022,11.103,2.886,16.132h-79.09v-82.688
			c0-21.79,7.567-43.069,21.307-59.918c10.851-13.307,25.147-23.426,41.097-29.259c15.198,31.947,44.056,54.933,78.102,62.872
			c0.159,0.037,0.318,0.076,0.478,0.113c0.763,0.174,1.529,0.342,2.297,0.501c0.448,0.093,0.899,0.18,1.35,0.269
			c0.846,0.165,1.692,0.324,2.544,0.47c0.842,0.145,1.686,0.284,2.534,0.412c0.48,0.072,0.961,0.137,1.443,0.203
			c0.808,0.111,1.619,0.213,2.433,0.306c0.393,0.046,0.785,0.094,1.179,0.135c1.181,0.124,2.367,0.231,3.559,0.319
			c0.279,0.02,0.56,0.034,0.839,0.054c0.992,0.066,1.986,0.12,2.984,0.161c0.351,0.014,0.703,0.029,1.054,0.041
			c1.249,0.04,2.5,0.067,3.76,0.067c1.259,0,2.51-0.027,3.76-0.067c0.352-0.011,0.703-0.025,1.055-0.041
			c0.998-0.041,1.992-0.094,2.984-0.161c0.28-0.018,0.56-0.032,0.839-0.054c1.191-0.088,2.378-0.196,3.559-0.319
			c0.394-0.042,0.786-0.09,1.179-0.135c0.813-0.094,1.624-0.196,2.433-0.306c0.482-0.066,0.963-0.131,1.443-0.203
			c0.848-0.127,1.691-0.266,2.534-0.412c0.851-0.146,1.698-0.306,2.544-0.47c0.45-0.088,0.901-0.175,1.349-0.269
			c0.769-0.159,1.534-0.326,2.298-0.501c0.16-0.036,0.318-0.075,0.478-0.113c34.046-7.939,62.904-30.925,78.102-62.872
			c15.95,5.833,30.246,15.953,41.097,29.259c13.74,16.849,21.307,38.128,21.307,59.918V481.583z"/>
	</g>
</g>
</svg>