<!DOCTYPE svg PUBLIC "-//W3C//DTD SVG 1.1//EN" "http://www.w3.org/Graphics/SVG/1.1/DTD/svg11.dtd">
<!-- Uploaded to: SVG Repo, www.svgrepo.com, Transformed by: SVG Repo Mixer Tools -->
<svg fill="#000000" height="800px" width="800px" version="1.2" baseProfile="tiny" id="Layer_1" xmlns="http://www.w3.org/2000/svg" xmlns:xlink="http://www.w3.org/1999/xlink" viewBox="-77 65 101 128" xml:space="preserve" stroke="#000000">
<g id="SVGRepo_bgCarrier" stroke-width="0"/>
<g id="SVGRepo_tracerCarrier" stroke-linecap="round" stroke-linejoin="round"/>
<g id="SVGRepo_iconCarrier"> <path d="M-1.7,118.4V97.8h-11.4V108l-13.2-12.1l-44.3,39.6l6.7,7.6l6.8-6.1v51.2H4v-50.9l6.7,6.1l6.8-7.5L-1.7,118.4z M-43.3,151.1 v-12.7h12.4v12.8h-12.4V151.1z M-24,185.1v-20.8h16.8v20.8C-7.2,185.1-24,185.1-24,185.1z M-9.4,151.1h-12.4v-12.7h12.4V151.1z M2.2,80.4l-5.7-5h-29.3c-2.4-3.6-6.5-6-11.1-6c-7.3,0-13.3,6-13.3,13.3c0,7.3,5.9,13.3,13.3,13.3c4.7,0,8.8-2.5,11.2-6.1h6.2 l4.6-6.1l3.5,5.1L-15,84l3.5,5l3.5-5.1l3.5,5.1l6.7-6C3.1,81.9,3.1,81.3,2.2,80.4z M-51,85.6c-1.6,0-3-1.3-3-3c0-1.6,1.3-3,3-3 c1.6,0,3,1.3,3,3C-48.1,84.3-49.4,85.6-51,85.6z"/> </g>
</svg>