<?xml version="1.0" encoding="iso-8859-1"?>
<!-- Uploaded to: SVG Repo, www.svgrepo.com, Generator: SVG Repo Mixer Tools -->
<svg fill="#000000" height="800px" width="800px" version="1.1" id="Layer_1" xmlns="http://www.w3.org/2000/svg" xmlns:xlink="http://www.w3.org/1999/xlink" 
	 viewBox="0 0 512.427 512.427" xml:space="preserve">
<g transform="translate(1 1)">
	<g>
		<g>
			<path d="M50.413,426.093h68.267c5.12,0,8.533-3.413,8.533-8.533v-102.4c0-5.12-3.413-8.533-8.533-8.533H50.413
				c-5.12,0-8.533,3.413-8.533,8.533v102.4C41.88,422.68,45.293,426.093,50.413,426.093z M110.147,409.027H93.08v-85.333h17.067
				V409.027z M58.947,323.693h17.067v85.333H58.947V323.693z"/>
			<path d="M383.213,315.16v102.4c0,5.12,3.413,8.533,8.533,8.533h68.267c5.12,0,8.533-3.413,8.533-8.533v-102.4
				c0-5.12-3.413-8.533-8.533-8.533h-68.267C386.627,306.627,383.213,310.04,383.213,315.16z M451.48,409.027h-17.067v-85.333
				h17.067V409.027z M400.28,323.693h17.067v85.333H400.28V323.693z"/>
			<path d="M502.68,204.227h-9.671l-15.929-95.573c-0.853-3.413-4.267-6.827-8.533-6.827h-39.822L259.48,0.28
				c-2.56-1.707-5.973-1.707-8.533,0L81.702,101.827H41.88c-4.267,0-7.68,3.413-8.533,6.827l-15.929,95.573H7.747
				c-5.12,0-8.533,3.413-8.533,8.533v34.133c0,5.12,3.413,8.533,8.533,8.533h8.533v196.267v51.2c0,5.12,3.413,8.533,8.533,8.533
				H195.48h119.467h170.667c5.12,0,8.533-3.413,8.533-8.533v-51.2V255.427h8.533c5.12,0,8.533-3.413,8.533-8.533V212.76
				C511.213,207.64,507.8,204.227,502.68,204.227z M475.373,204.227h-66.56v-51.2l12.8,7.68c0.258,0.258,0.601,0.431,0.991,0.557
				c2.404,1.123,5.301,0.938,7.542-0.557c2.56-1.707,4.267-4.267,4.267-7.68v-34.133h26.453L475.373,204.227z M357.613,443.16
				h-17.067v-153.6h17.067V443.16z M289.347,443.16H221.08V323.693h68.267V443.16z M314.947,443.16h-8.533v-128
				c0-5.12-3.413-8.533-8.533-8.533h-85.333c-5.12,0-8.533,3.413-8.533,8.533v128h-8.533h-8.533v-153.6H323.48v153.6H314.947z
				 M152.813,289.56h17.067v153.6h-17.067V289.56z M366.147,272.493h-34.133h-153.6H144.28h-25.6v-25.6V212.76v-69.973
				l136.533-81.92l136.533,81.92v69.973v34.133v25.6H366.147z M255.213,18.2l162.133,96.427v23.04l-12.8-7.68L259.48,42.947
				c-0.258-0.258-0.601-0.431-0.991-0.557c-2.063-0.964-4.488-0.964-6.551,0c-0.39,0.126-0.733,0.299-0.991,0.557l-145.067,87.04
				l-12.8,7.68V115.48L255.213,18.2z M48.707,118.893h27.307v34.133c0,3.413,1.707,5.973,4.267,7.68s5.973,1.707,8.533,0l12.8-7.68
				v51.2h-66.56L48.707,118.893z M16.28,221.293h8.533h76.8v17.067h-76.8H16.28V221.293z M101.613,255.427v25.6
				c0,5.12,3.413,8.533,8.533,8.533h25.6v153.6h-102.4V255.427H101.613z M33.347,460.227H144.28h34.133h8.533v34.133h-153.6V460.227
				z M204.013,494.36v-34.133h8.533h85.333h8.533v34.133H204.013z M477.08,494.36h-153.6v-34.133h8.533h34.133H477.08V494.36z
				 M477.08,443.16h-102.4v-153.6h25.6c5.12,0,8.533-3.413,8.533-8.533v-25.6h68.267V443.16z M494.147,238.36h-8.533h-76.8v-17.067
				h76.8h8.533V238.36z"/>
			<path d="M263.747,400.493h8.533c5.12,0,8.533-3.413,8.533-8.533c0-5.12-3.413-8.533-8.533-8.533h-8.533
				c-5.12,0-8.533,3.413-8.533,8.533C255.213,397.08,258.627,400.493,263.747,400.493z"/>
			<path d="M349.283,180.964c-15.734-36.417-52.05-62.071-94.07-62.071c-56.32,0-102.4,46.08-102.4,102.4v8.533
				c0,5.12,3.413,8.533,8.533,8.533H349.08c5.12,0,8.533-3.413,8.533-8.533v-8.533c0-12.051-2.116-23.631-5.984-34.393
				C351.572,184.452,350.731,182.407,349.283,180.964z M329.01,178.627h-65.263V136.39
				C291.576,139.187,315.555,155.509,329.01,178.627z M246.68,136.39v42.236h-65.263C194.872,155.509,218.85,139.187,246.68,136.39z
				 M173.834,195.693h72.846v25.6h-76.8C169.88,212.383,171.271,203.784,173.834,195.693z M263.747,221.293v-25.6h72.846
				c2.564,8.091,3.954,16.69,3.954,25.6H263.747z"/>
		</g>
	</g>
</g>
</svg>