<?xml version="1.0" encoding="iso-8859-1"?>
<!-- Uploaded to: SVG Repo, www.svgrepo.com, Generator: SVG Repo Mixer Tools -->
<svg fill="#000000" height="800px" width="800px" version="1.1" id="Layer_1" xmlns="http://www.w3.org/2000/svg" xmlns:xlink="http://www.w3.org/1999/xlink" 
	 viewBox="0 0 512.335 512.335" xml:space="preserve">
<g transform="translate(1 1)">
	<g>
		<g>
			<path d="M511,210.794l-25.6-102.4c-0.853-4.267-4.267-6.827-8.533-6.827h-123.52l-91.52-99.84c-3.413-3.413-9.387-3.413-12.8,0
				l-91.52,99.84H33.133c-4.267,0-7.68,2.56-8.533,6.827L-1,210.794c0,2.56,0,4.267,1.707,6.827s4.267,3.413,6.827,3.413h8.533
				v281.6c0,5.12,3.413,8.533,8.533,8.533h136.533H203.8h102.4h42.667H485.4c5.12,0,8.533-3.413,8.533-8.533v-281.6h8.533
				c2.56,0,5.12,0,6.827-2.56C511,215.914,511.853,213.354,511,210.794z M491.373,203.967H485.4H358.253v-85.333H470.04
				L491.373,203.967z M314.733,477.034h25.6v17.067h-25.6V477.034z M255,20.501l85.333,93.013v98.987v247.467h-25.6v-93.867
				c0-5.12-3.413-8.533-8.533-8.533H203.8c-5.12,0-8.533,3.413-8.533,8.533v93.867h-25.6V212.501v-98.987L255,20.501z
				 M39.96,118.634H152.6v85.333h-128h-5.973L39.96,118.634z M152.6,221.034v238.933H33.133V221.034H152.6z M33.133,477.034H152.6
				v17.067H33.133V477.034z M169.667,477.034h25.6v17.067h-25.6V477.034z M212.333,494.101V374.634h85.333v119.467H212.333z
				 M358.253,494.101v-17.067h118.613v17.067H358.253z M476.867,459.967H358.253V221.034h118.613V459.967z"/>
			<path d="M280.6,425.834h-8.533c-5.12,0-8.533,3.413-8.533,8.533s3.413,8.533,8.533,8.533h8.533c5.12,0,8.533-3.413,8.533-8.533
				S285.72,425.834,280.6,425.834z"/>
			<path d="M255,186.901c28.16,0,51.2-23.04,51.2-51.2c0-28.16-23.04-51.2-51.2-51.2c-28.16,0-51.2,23.04-51.2,51.2
				C203.8,163.861,226.84,186.901,255,186.901z M221.954,144.234h24.512v24.512C234.517,165.642,225.059,156.183,221.954,144.234z
				 M263.533,168.746v-24.512h24.512C284.941,156.183,275.483,165.642,263.533,168.746z M288.046,127.167h-24.512v-24.512
				C275.483,105.76,284.941,115.218,288.046,127.167z M246.467,102.655v24.512h-24.512
				C225.059,115.218,234.517,105.76,246.467,102.655z"/>
			<path d="M50.2,323.434h8.533H127h8.533c5.12,0,8.533-3.413,8.533-8.533s-3.413-8.533-8.533-8.533v-59.733
				c0-5.12-3.413-8.533-8.533-8.533H58.733c-5.12,0-8.533,3.413-8.533,8.533v59.733c-5.12,0-8.533,3.413-8.533,8.533
				S45.08,323.434,50.2,323.434z M118.467,306.367H101.4v-51.2h17.067V306.367z M67.267,255.167h17.067v51.2H67.267V255.167z"/>
			<path d="M50.2,425.834h8.533H127h8.533c5.12,0,8.533-3.413,8.533-8.533s-3.413-8.533-8.533-8.533v-59.733
				c0-5.12-3.413-8.533-8.533-8.533H58.733c-5.12,0-8.533,3.413-8.533,8.533v59.733c-5.12,0-8.533,3.413-8.533,8.533
				S45.08,425.834,50.2,425.834z M118.467,408.767H101.4v-51.2h17.067V408.767z M67.267,357.567h17.067v51.2H67.267V357.567z"/>
			<path d="M374.467,323.434H383h68.267h8.533c5.12,0,8.533-3.413,8.533-8.533s-3.413-8.533-8.533-8.533v-59.733
				c0-5.12-3.413-8.533-8.533-8.533H383c-5.12,0-8.533,3.413-8.533,8.533v59.733c-5.12,0-8.533,3.413-8.533,8.533
				S369.347,323.434,374.467,323.434z M442.733,306.367h-17.067v-51.2h17.067V306.367z M391.533,255.167H408.6v51.2h-17.067V255.167
				z"/>
			<path d="M459.8,408.767v-59.733c0-5.12-3.413-8.533-8.533-8.533H383c-5.12,0-8.533,3.413-8.533,8.533v59.733
				c-5.12,0-8.533,3.413-8.533,8.533s3.413,8.533,8.533,8.533H383h68.267h8.533c5.12,0,8.533-3.413,8.533-8.533
				S464.92,408.767,459.8,408.767z M391.533,357.567H408.6v51.2h-17.067V357.567z M425.667,408.767v-51.2h17.067v51.2H425.667z"/>
			<path d="M212.333,323.434h8.533h68.267h8.533c5.12,0,8.533-3.413,8.533-8.533s-3.413-8.533-8.533-8.533v-59.733
				c0-5.12-3.413-8.533-8.533-8.533h-68.267c-5.12,0-8.533,3.413-8.533,8.533v59.733c-5.12,0-8.533,3.413-8.533,8.533
				S207.213,323.434,212.333,323.434z M280.6,306.367h-17.067v-51.2H280.6V306.367z M229.4,255.167h17.067v51.2H229.4V255.167z"/>
		</g>
	</g>
</g>
</svg>